<?xml version="1.0" standalone="no"?>
<!DOCTYPE svg PUBLIC "-//W3C//DTD SVG 20010904//EN"
 "http://www.w3.org/TR/2001/REC-SVG-20010904/DTD/svg10.dtd">
<svg version="1.0" xmlns="http://www.w3.org/2000/svg"
 width="160.000000pt" height="160.000000pt" viewBox="0 0 160.000000 160.000000"
 preserveAspectRatio="xMidYMid meet">
<metadata>
Created by potrace 1.11, written by Peter Selinger 2001-2013
</metadata>
<g transform="translate(0.000000,160.000000) scale(0.100000,-0.100000)"
fill="#000000" stroke="none">
<path d="M1082 1558 c-31 -19 -55 -71 -67 -148 -3 -19 -8 -42 -10 -50 -2 -8
-7 -31 -9 -50 -3 -19 -9 -50 -15 -67 -5 -18 -8 -33 -6 -33 3 0 0 -12 -5 -26
-6 -15 -12 -42 -15 -61 -2 -20 -7 -43 -10 -53 -3 -10 -8 -29 -10 -41 -9 -44
-32 -51 -39 -13 -2 11 -16 60 -31 111 -14 51 -28 103 -31 117 -2 14 -8 36 -13
48 -5 13 -9 26 -10 31 0 4 -1 8 -2 10 0 1 -2 13 -4 27 -7 53 -26 123 -40 150
-42 81 -152 80 -185 0 -13 -32 -9 -84 17 -178 8 -31 17 -68 19 -82 2 -14 7
-36 10 -50 3 -14 7 -32 9 -40 2 -8 7 -33 13 -55 l9 -40 -46 3 c-54 3 -88 -12
-116 -53 l-20 -30 -35 18 c-65 33 -154 2 -165 -58 -7 -36 1 -406 10 -455 3
-19 10 -59 16 -87 6 -29 10 -55 9 -58 -3 -14 78 -153 100 -171 25 -22 65 -56
85 -72 16 -13 97 -43 130 -48 61 -10 228 -11 268 -2 127 27 227 125 296 287
29 70 32 82 36 171 4 68 1 80 -25 127 -47 84 -59 307 -25 467 2 12 7 37 10 56
2 19 6 44 9 55 2 11 7 40 11 65 8 47 8 50 24 116 13 50 8 118 -9 139 -34 41
-94 51 -138 23z"/>
</g>
</svg>
